<?xml version="1.0" standalone="no"?>
<!DOCTYPE svg PUBLIC "-//W3C//DTD SVG 20010904//EN"
 "http://www.w3.org/TR/2001/REC-SVG-20010904/DTD/svg10.dtd">
<svg version="1.0" xmlns="http://www.w3.org/2000/svg"
 width="500.000000pt" height="500.000000pt" viewBox="0 0 500.000000 500.000000"
 preserveAspectRatio="xMidYMid meet">

<g transform="translate(0.000000,500.000000) scale(0.100000,-0.100000)"
fill="#000000" stroke="none">
<path d="M2645 4690 c-117 -24 -243 -96 -320 -183 -25 -29 -64 -89 -87 -134
l-40 -81 -40 14 c-22 8 -69 14 -104 14 -155 0 -281 -102 -315 -257 -11 -47
-16 -54 -45 -63 -52 -18 -146 -92 -188 -149 -132 -179 -116 -426 36 -587 62
-65 115 -99 199 -125 57 -18 104 -19 789 -19 687 0 732 1 789 19 299 93 419
462 231 712 -43 57 -125 123 -182 146 l-37 15 1 91 c3 173 -49 304 -165 421
-141 141 -336 203 -522 166z m210 -75 c192 -41 342 -184 391 -376 13 -50 15
-88 10 -170 l-6 -106 60 -22 c186 -68 293 -265 246 -451 -32 -122 -100 -206
-214 -262 l-67 -33 -745 0 -745 0 -65 31 c-79 37 -128 79 -168 142 -96 150
-78 342 43 471 43 46 149 111 181 111 19 0 34 33 34 75 0 72 58 157 134 198
64 34 165 31 233 -7 64 -35 72 -30 97 54 60 200 263 351 481 359 17 0 62 -6
100 -14z"/>
<path d="M2493 4043 c-10 -3 -13 -60 -13 -233 l0 -229 -62 -3 c-39 -2 -63 -8
-66 -16 -2 -7 44 -61 102 -120 l107 -107 105 108 c58 60 103 114 101 120 -2 7
-29 13 -65 15 l-62 3 0 228 c0 200 -2 230 -16 235 -18 7 -113 7 -131 -1z"/>
<path d="M1890 2869 c-36 -5 -346 -41 -689 -79 -343 -39 -628 -73 -633 -76 -4
-3 -8 -9 -8 -13 0 -4 128 -122 285 -262 157 -140 285 -257 285 -261 0 -5 -171
-162 -380 -350 -209 -188 -379 -346 -377 -352 2 -6 178 -51 390 -100 l387 -90
0 -237 0 -236 -90 -24 c-89 -22 -115 -43 -67 -53 103 -22 292 -56 337 -61 30
-4 98 -16 150 -27 85 -17 217 -41 380 -68 99 -17 225 -39 245 -45 11 -2 38 -6
60 -8 22 -2 45 -6 50 -9 6 -3 39 -10 75 -16 36 -6 83 -14 105 -18 22 -4 49 -8
60 -9 11 -2 61 -9 110 -17 56 -8 105 -10 130 -5 95 19 123 25 165 36 25 6 144
32 265 57 121 25 294 61 385 80 91 20 217 46 280 59 244 50 339 75 363 95 5 4
-9 10 -30 14 -21 4 -62 12 -90 18 l-53 11 0 216 0 216 236 60 c130 33 240 63
245 66 5 3 -98 190 -231 414 -132 225 -240 412 -240 415 0 3 139 117 309 253
169 136 314 253 320 261 7 8 8 17 3 20 -4 3 -361 35 -791 71 l-783 67 -56 -49
c-399 -345 -462 -394 -480 -381 -10 7 -127 106 -259 221 -264 227 -237 213
-363 196z m-860 -985 c0 -3 -30 -39 -67 -80 -46 -52 -73 -74 -90 -74 -13 0
-23 4 -23 9 0 4 28 40 63 79 48 55 68 71 90 72 15 0 27 -3 27 -6z m115 -28
c41 -18 44 -28 11 -45 -20 -11 -28 -10 -49 4 -31 20 -44 4 -17 -20 27 -25 25
-50 -6 -74 -35 -28 -103 -28 -135 -1 l-24 20 23 20 c23 19 23 19 42 0 20 -20
41 -25 53 -14 3 4 -5 15 -18 26 -31 24 -31 39 -2 65 39 36 70 41 122 19z
m2890 -22 c24 -9 48 -62 40 -91 -3 -15 -17 -28 -35 -35 -26 -9 -28 -12 -19
-30 11 -21 -1 -37 -26 -38 -11 0 -85 155 -85 177 0 19 88 31 125 17z m-2738
-15 c25 -9 42 -25 43 -40 0 -3 -12 -11 -27 -18 -22 -10 -28 -10 -35 3 -13 23
-53 19 -84 -7 -39 -34 -27 -62 21 -53 30 6 35 4 35 -12 0 -21 -25 -32 -72 -32
-116 0 -83 122 42 158 47 14 45 13 77 1z m2587 -15 c9 -3 16 -16 16 -29 0 -19
-5 -22 -37 -21 -44 1 -54 -20 -29 -59 18 -27 45 -32 76 -13 16 10 23 10 36 -4
15 -15 15 -17 -5 -37 -59 -59 -171 5 -171 98 0 49 62 85 114 65z m-2336 -50
c33 -21 28 -57 -13 -98 -47 -47 -100 -61 -171 -45 -30 7 -54 14 -54 16 0 3 30
38 68 79 66 74 67 75 107 68 22 -3 50 -12 63 -20z m2215 -58 c20 -47 37 -90
37 -95 0 -6 -11 -11 -25 -11 -14 0 -25 6 -25 13 0 29 -26 50 -54 43 -26 -6
-26 -7 -10 -38 16 -31 9 -47 -22 -48 -11 0 -84 156 -84 179 0 6 10 11 23 11
16 0 26 -9 34 -30 8 -22 18 -30 35 -30 35 0 39 9 22 43 -13 24 -14 31 -2 38
26 17 35 8 71 -75z m-2103 34 c12 -7 11 -13 -9 -34 -27 -29 -27 -31 11 -40 23
-5 31 -1 50 24 20 28 60 41 71 23 3 -5 -27 -43 -67 -86 -59 -64 -75 -76 -93
-71 l-23 6 20 25 c26 33 25 41 -2 45 -15 3 -34 -6 -55 -26 -26 -23 -37 -27
-53 -20 -18 8 -14 15 51 87 39 42 74 77 77 77 4 0 14 -5 22 -10z m1910 -39
c71 -71 46 -144 -56 -165 -30 -7 -31 -6 -67 78 -20 47 -37 89 -37 95 0 11 28
18 88 20 36 1 49 -4 72 -28z m-1652 -27 c12 -8 22 -21 22 -28 0 -21 -42 -27
-61 -10 -21 19 -60 10 -89 -21 -28 -29 -19 -45 26 -45 27 0 34 -4 34 -19 0
-16 -9 -21 -45 -27 -119 -17 -128 88 -13 145 51 25 95 27 126 5z m1411 -3 c8
-5 11 -16 7 -29 -6 -17 -12 -19 -29 -13 -32 12 -47 3 -47 -27 0 -49 52 -80 80
-47 9 11 17 12 31 4 24 -12 24 -24 -1 -49 -42 -42 -128 -11 -156 56 -19 44
-18 57 7 88 15 20 29 26 57 26 20 0 43 -4 51 -9z m-1251 -37 c30 -20 28 -30
-12 -70 -30 -30 -40 -34 -88 -34 -41 0 -59 -5 -72 -19 -16 -18 -56 -18 -56 -1
0 5 28 41 63 80 61 71 62 71 102 65 22 -3 50 -13 63 -21z m1080 10 c15 -4 22
-14 22 -30 0 -20 -3 -22 -35 -17 -23 4 -35 2 -35 -6 0 -6 18 -14 41 -17 77
-13 106 -84 45 -113 -41 -19 -100 -5 -104 27 -3 21 -1 22 36 16 24 -4 42 -2
46 4 4 7 -8 13 -31 17 -51 8 -66 17 -82 50 -13 27 -12 30 13 52 28 24 45 27
84 17z m-105 -111 c21 -49 37 -91 37 -95 0 -5 -10 -8 -23 -8 -19 0 -29 14 -60
87 -29 67 -35 88 -25 95 26 16 35 6 71 -79z"/>
<path d="M3977 1794 c-10 -10 12 -44 28 -44 21 0 28 19 15 35 -13 16 -32 19
-43 9z"/>
<path d="M1426 1691 c-37 -37 -37 -38 -15 -44 44 -12 121 52 89 73 -24 16 -34
12 -74 -29z"/>
<path d="M3484 1672 c-8 -5 -6 -20 7 -50 15 -35 23 -43 41 -40 33 4 35 42 4
73 -27 27 -34 29 -52 17z"/>
<path d="M1975 1580 c-18 -20 -17 -20 12 -20 30 0 59 21 46 33 -12 13 -40 7
-58 -13z"/>
</g>
</svg>
