<?xml version="1.0" encoding="UTF-8"?>
<!DOCTYPE svg PUBLIC "-//W3C//DTD SVG 1.1//EN" "http://www.w3.org/Graphics/SVG/1.1/DTD/svg11.dtd">
<svg xmlns="http://www.w3.org/2000/svg" version="1.1" width="512px" height="512px" style="shape-rendering:geometricPrecision; text-rendering:geometricPrecision; image-rendering:optimizeQuality; fill-rule:evenodd; clip-rule:evenodd" xmlns:xlink="http://www.w3.org/1999/xlink">
<g><path style="opacity:0.986" fill="#010202" d="M 233.5,-0.5 C 248.167,-0.5 262.833,-0.5 277.5,-0.5C 367.555,10.0943 435.388,54.4276 481,132.5C 497.855,164.278 508.022,197.945 511.5,233.5C 511.5,248.167 511.5,262.833 511.5,277.5C 500.906,367.555 456.572,435.388 378.5,481C 346.722,497.855 313.055,508.022 277.5,511.5C 262.833,511.5 248.167,511.5 233.5,511.5C 146.607,501.486 80.107,459.486 34,385.5C 32.1601,381.195 32.9934,377.528 36.5,374.5C 39.5457,373.115 42.5457,373.281 45.5,375C 78.1823,429.008 124.516,466.008 184.5,486C 189.099,487.652 193.765,488.652 198.5,489C 174.952,467.764 157.452,442.264 146,412.5C 141.097,399.79 136.597,386.956 132.5,374C 99.3017,364.899 68.9684,350.232 41.5,330C 34.6975,324.199 28.1975,318.032 22,311.5C 24.0839,323.096 27.4172,334.43 32,345.5C 33.4066,350.357 32.24,354.357 28.5,357.5C 24.713,358.186 21.5463,357.186 19,354.5C 8.71307,330.016 2.21307,304.683 -0.5,278.5C -0.5,263.5 -0.5,248.5 -0.5,233.5C 10.0943,143.445 54.4276,75.612 132.5,30C 164.278,13.1449 197.945,2.97822 233.5,-0.5 Z"/></g>
<g><path style="opacity:1" fill="#70d6fb" d="M 246.5,15.5 C 247.498,50.3294 247.832,85.3294 247.5,120.5C 229.226,120.855 210.893,122.355 192.5,125C 185.928,129.478 185.928,134.145 192.5,139C 206.455,137.841 220.455,137.007 234.5,136.5C 238.833,136.5 243.167,136.5 247.5,136.5C 247.5,147.5 247.5,158.5 247.5,169.5C 211.833,169.5 176.167,169.5 140.5,169.5C 141.552,162.744 143.052,156.077 145,149.5C 152.458,147.542 159.791,145.209 167,142.5C 169.836,135.173 167.336,131.173 159.5,130.5C 156.547,130.651 153.714,131.317 151,132.5C 158.961,99.9173 173.961,70.5839 196,44.5C 206.16,33.6741 217.993,25.1741 231.5,19C 236.302,16.8974 241.302,15.7308 246.5,15.5 Z"/></g>
<g><path style="opacity:1" fill="#376b7c" d="M 246.5,15.5 C 246.56,14.9569 246.893,14.6236 247.5,14.5C 248.83,49.9977 248.83,85.331 247.5,120.5C 247.832,85.3294 247.498,50.3294 246.5,15.5 Z"/></g>
<g><path style="opacity:1" fill="#376a7c" d="M 265.5,15.5 C 263.507,50.1507 262.84,85.1507 263.5,120.5C 262.502,85.3373 262.168,50.0039 262.5,14.5C 263.791,14.2627 264.791,14.596 265.5,15.5 Z"/></g>
<g><path style="opacity:1" fill="#70d6fb" d="M 265.5,15.5 C 288.309,20.8233 306.809,32.8233 321,51.5C 338.968,75.7687 352.468,102.435 361.5,131.5C 360.833,131.833 360.167,132.167 359.5,132.5C 327.781,125.099 295.781,121.099 263.5,120.5C 262.84,85.1507 263.507,50.1507 265.5,15.5 Z"/></g>
<g><path style="opacity:1" fill="#70d6fa" d="M 195.5,21.5 C 196.552,21.3505 197.552,21.5172 198.5,22C 174.612,43.9123 156.778,70.079 145,100.5C 140.337,112.323 136.17,124.323 132.5,136.5C 99.4066,146.048 69.0733,160.882 41.5,181C 34.6975,186.801 28.1975,192.968 22,199.5C 27.8921,170.045 39.5588,143.045 57,118.5C 91.7645,69.9047 137.931,37.5713 195.5,21.5 Z"/></g>
<g><path style="opacity:1" fill="#5fc1f5" d="M 410.5,147.5 C 410.938,147.565 411.272,147.399 411.5,147C 396.128,113.623 374.628,84.7902 347,60.5C 346.601,60.7284 346.435,61.0618 346.5,61.5C 337.218,46.7066 325.884,33.54 312.5,22C 388.064,41.5491 442.564,86.7157 476,157.5C 482.172,171.009 486.505,185.009 489,199.5C 466.686,176.354 440.52,159.02 410.5,147.5 Z"/></g>
<g><path style="opacity:1" fill="#6fd5fa" d="M 410.5,147.5 C 399.751,144.144 389.084,140.477 378.5,136.5C 370.805,110.123 360.138,85.1232 346.5,61.5C 346.435,61.0618 346.601,60.7284 347,60.5C 374.628,84.7902 396.128,113.623 411.5,147C 411.272,147.399 410.938,147.565 410.5,147.5 Z"/></g>
<g><path style="opacity:1" fill="#396e80" d="M 234.5,136.5 C 238.97,135.514 243.637,135.181 248.5,135.5C 248.828,147.012 248.495,158.346 247.5,169.5C 247.5,158.5 247.5,147.5 247.5,136.5C 243.167,136.5 238.833,136.5 234.5,136.5 Z"/></g>
<g><path style="opacity:1" fill="#386d80" d="M 271.5,136.5 C 268.833,136.5 266.167,136.5 263.5,136.5C 263.5,147.5 263.5,158.5 263.5,169.5C 262.505,158.346 262.172,147.012 262.5,135.5C 265.713,135.19 268.713,135.523 271.5,136.5 Z"/></g>
<g><path style="opacity:1" fill="#70d6fb" d="M 271.5,136.5 C 303.303,137.094 334.637,141.26 365.5,149C 367.863,155.644 369.53,162.477 370.5,169.5C 334.833,169.5 299.167,169.5 263.5,169.5C 263.5,158.5 263.5,147.5 263.5,136.5C 266.167,136.5 268.833,136.5 271.5,136.5 Z"/></g>
<g><path style="opacity:1" fill="#70d6fb" d="M 104.5,247.5 C 74.662,247.831 44.9953,247.498 15.5,246.5C 18.0978,232.638 23.9311,220.304 33,209.5C 50.7968,190.714 71.6302,176.214 95.5,166C 106.272,161.632 117.105,157.466 128,153.5C 127.656,158.889 126.656,164.222 125,169.5C 114.342,172.158 107.675,178.824 105,189.5C 104.5,208.83 104.333,228.164 104.5,247.5 Z"/></g>
<g><path style="opacity:1" fill="#70d6fb" d="M 420.5,168.5 C 429.359,194.081 434.025,220.414 434.5,247.5C 425.167,247.5 415.833,247.5 406.5,247.5C 406.667,228.164 406.5,208.83 406,189.5C 403.333,178.833 396.667,172.167 386,169.5C 384.831,164.823 383.664,160.156 382.5,155.5C 395.538,158.181 408.205,162.514 420.5,168.5 Z"/></g>
<g><path style="opacity:1" fill="#5fc2f5" d="M 420.5,168.5 C 446.924,180.095 468.757,197.428 486,220.5C 491.163,228.483 494.33,237.149 495.5,246.5C 475.34,247.497 455.007,247.83 434.5,247.5C 434.025,220.414 429.359,194.081 420.5,168.5 Z"/></g>
<g><path style="opacity:1" fill="#fbc972" d="M 125.5,184.5 C 212.167,184.333 298.834,184.5 385.5,185C 387.917,186.663 389.75,188.829 391,191.5C 391.984,234.892 391.65,278.226 390,321.5C 388.833,323.333 387.333,324.833 385.5,326C 298.833,326.667 212.167,326.667 125.5,326C 122.813,324.125 120.979,321.625 120,318.5C 119.333,276.167 119.333,233.833 120,191.5C 121.371,188.734 123.204,186.401 125.5,184.5 Z"/></g>
<g><path style="opacity:1" fill="#050402" d="M 331.5,202.5 C 342.864,201.573 353.864,203.073 364.5,207C 368.847,210.737 369.681,215.237 367,220.5C 365.221,222.764 362.887,224.097 360,224.5C 352.091,219.919 343.591,218.419 334.5,220C 326.782,222.376 324.615,227.209 328,234.5C 329.558,236.359 331.391,237.859 333.5,239C 342.5,242.771 351.167,247.104 359.5,252C 373.269,265.302 375.102,280.135 365,296.5C 354.917,305.636 343.083,309.136 329.5,307C 320.772,305.433 313.272,301.6 307,295.5C 302.8,287.893 304.8,282.56 313,279.5C 317.333,281.154 321.167,283.654 324.5,287C 332.461,291.391 340.461,291.391 348.5,287C 353.736,278.364 352.069,271.364 343.5,266C 334.06,262.114 325.06,257.447 316.5,252C 306.704,241.486 304.871,229.653 311,216.5C 316.257,209.46 323.09,204.793 331.5,202.5 Z"/></g>
<g><path style="opacity:1" fill="#020100" d="M 149.5,202.5 C 161.171,202.333 172.838,202.5 184.5,203C 196.525,204.695 204.691,211.195 209,222.5C 210.617,242.115 210.951,261.782 210,281.5C 207.377,295.123 199.211,302.956 185.5,305C 173.167,305.667 160.833,305.667 148.5,305C 147.069,304.535 145.903,303.701 145,302.5C 144.333,270.5 144.333,238.5 145,206.5C 146.397,204.93 147.897,203.596 149.5,202.5 Z"/></g>
<g><path style="opacity:1" fill="#020100" d="M 273.5,261.5 C 273.56,262.043 273.893,262.376 274.5,262.5C 275.5,244.179 275.833,225.845 275.5,207.5C 275.574,205.589 276.574,204.422 278.5,204C 282.167,203.333 285.833,203.333 289.5,204C 290.931,204.465 292.097,205.299 293,206.5C 293.667,238.5 293.667,270.5 293,302.5C 287,306.5 281,306.5 275,302.5C 265,283.833 255,265.167 245,246.5C 244.667,264.5 244.333,282.5 244,300.5C 242.063,304.386 238.897,306.053 234.5,305.5C 231.139,305.888 228.306,304.888 226,302.5C 225.333,270.5 225.333,238.5 226,206.5C 226.833,205.667 227.667,204.833 228.5,204C 235.95,201.947 242.116,203.78 247,209.5C 256.115,226.731 264.948,244.064 273.5,261.5 Z"/></g>
<g><path style="opacity:1" fill="#473920" d="M 275.5,207.5 C 275.833,225.845 275.5,244.179 274.5,262.5C 273.893,262.376 273.56,262.043 273.5,261.5C 274.167,243.5 274.833,225.5 275.5,207.5 Z"/></g>
<g><path style="opacity:1" fill="#fdcb73" d="M 163.5,219.5 C 170.589,219.116 177.589,219.616 184.5,221C 187.745,222.981 189.911,225.814 191,229.5C 191.667,245.167 191.667,260.833 191,276.5C 190.9,283.075 187.733,287.075 181.5,288.5C 175.5,288.5 169.5,288.5 163.5,288.5C 163.5,265.5 163.5,242.5 163.5,219.5 Z"/></g>
<g><path style="opacity:1" fill="#376a7c" d="M 15.5,246.5 C 44.9953,247.498 74.662,247.831 104.5,247.5C 74.664,248.83 44.664,248.83 14.5,247.5C 14.6236,246.893 14.9569,246.56 15.5,246.5 Z"/></g>
<g><path style="opacity:1" fill="#31627a" d="M 495.5,246.5 C 496.043,246.56 496.376,246.893 496.5,247.5C 466.336,248.83 436.336,248.83 406.5,247.5C 415.833,247.5 425.167,247.5 434.5,247.5C 455.007,247.83 475.34,247.497 495.5,246.5 Z"/></g>
<g><path style="opacity:1" fill="#376a7c" d="M 104.5,263.5 C 74.662,263.169 44.9953,263.502 15.5,264.5C 14.9569,264.44 14.6236,264.107 14.5,263.5C 44.664,262.17 74.664,262.17 104.5,263.5 Z"/></g>
<g><path style="opacity:1" fill="#31627a" d="M 406.5,263.5 C 436.336,262.17 466.336,262.17 496.5,263.5C 496.376,264.107 496.043,264.44 495.5,264.5C 475.34,263.503 455.007,263.17 434.5,263.5C 425.167,263.5 415.833,263.5 406.5,263.5 Z"/></g>
<g><path style="opacity:1" fill="#70d6fb" d="M 104.5,263.5 C 104.333,282.836 104.5,302.17 105,321.5C 107.702,332.202 114.369,338.869 125,341.5C 126.673,346.363 127.506,351.363 127.5,356.5C 90.8309,346.759 59.3309,328.425 33,301.5C 23.9409,290.714 18.1076,278.381 15.5,264.5C 44.9953,263.502 74.662,263.169 104.5,263.5 Z"/></g>
<g><path style="opacity:1" fill="#70d6fb" d="M 406.5,263.5 C 415.833,263.5 425.167,263.5 434.5,263.5C 433.734,290.663 428.734,316.996 419.5,342.5C 408.252,347.923 396.585,352.589 384.5,356.5C 383.481,351.404 383.981,346.404 386,341.5C 396.64,338.86 403.307,332.193 406,321.5C 406.5,302.17 406.667,282.836 406.5,263.5 Z"/></g>
<g><path style="opacity:1" fill="#5fc2f5" d="M 434.5,263.5 C 455.007,263.17 475.34,263.503 495.5,264.5C 492.892,278.381 487.059,290.714 478,301.5C 461.504,319.494 442.004,333.161 419.5,342.5C 428.734,316.996 433.734,290.663 434.5,263.5 Z"/></g>
<g><path style="opacity:1" fill="#6d5731" d="M 163.5,219.5 C 163.5,242.5 163.5,265.5 163.5,288.5C 169.5,288.5 175.5,288.5 181.5,288.5C 175.355,289.49 169.022,289.823 162.5,289.5C 162.169,265.994 162.502,242.661 163.5,219.5 Z"/></g>
<g><path style="opacity:0.999" fill="#70d6fb" d="M 36.5,374.5 C 33.5626,368.959 30.8959,363.292 28.5,357.5C 32.24,354.357 33.4066,350.357 32,345.5C 27.4172,334.43 24.0839,323.096 22,311.5C 28.1975,318.032 34.6975,324.199 41.5,330C 68.9684,350.232 99.3017,364.899 132.5,374C 136.597,386.956 141.097,399.79 146,412.5C 157.452,442.264 174.952,467.764 198.5,489C 193.765,488.652 189.099,487.652 184.5,486C 124.516,466.008 78.1823,429.008 45.5,375C 42.5457,373.281 39.5457,373.115 36.5,374.5 Z"/></g>
<g><path style="opacity:1" fill="#5fc1f5" d="M 348.5,445.5 C 362.48,434.215 374.647,421.215 385,406.5C 394.173,393.495 402.34,379.829 409.5,365.5C 409.043,364.702 408.376,364.369 407.5,364.5C 438.647,353.006 465.813,335.34 489,311.5C 473.062,377.198 436.228,427.698 378.5,463C 357.812,475.225 335.812,483.891 312.5,489C 327.013,476.408 339.013,461.908 348.5,445.5 Z"/></g>
<g><path style="opacity:1" fill="#70d6fb" d="M 247.5,341.5 C 247.5,352.5 247.5,363.5 247.5,374.5C 243.167,374.5 238.833,374.5 234.5,374.5C 204.367,373.692 174.7,369.525 145.5,362C 143.447,355.622 141.78,349.122 140.5,342.5C 176.16,341.5 211.827,341.167 247.5,341.5 Z"/></g>
<g><path style="opacity:1" fill="#396f81" d="M 247.5,341.5 C 248.495,352.654 248.828,363.988 248.5,375.5C 243.637,375.819 238.97,375.486 234.5,374.5C 238.833,374.5 243.167,374.5 247.5,374.5C 247.5,363.5 247.5,352.5 247.5,341.5 Z"/></g>
<g><path style="opacity:1" fill="#396e81" d="M 263.5,341.5 C 263.5,352.5 263.5,363.5 263.5,374.5C 266.167,374.5 268.833,374.5 271.5,374.5C 268.713,375.477 265.713,375.81 262.5,375.5C 262.172,363.988 262.505,352.654 263.5,341.5 Z"/></g>
<g><path style="opacity:1" fill="#70d6fb" d="M 263.5,341.5 C 299.173,341.167 334.84,341.5 370.5,342.5C 369.22,349.122 367.553,355.622 365.5,362C 334.607,369.538 303.274,373.705 271.5,374.5C 268.833,374.5 266.167,374.5 263.5,374.5C 263.5,363.5 263.5,352.5 263.5,341.5 Z"/></g>
<g><path style="opacity:1" fill="#70d6fb" d="M 407.5,364.5 C 408.376,364.369 409.043,364.702 409.5,365.5C 402.34,379.829 394.173,393.495 385,406.5C 374.647,421.215 362.48,434.215 348.5,445.5C 348.198,438.368 344.531,435.535 337.5,437C 331.667,444.833 325.833,452.667 320,460.5C 307.576,475.923 292.076,487.089 273.5,494C 270.522,494.696 267.522,495.196 264.5,495.5C 263.502,460.671 263.168,425.671 263.5,390.5C 295.781,389.901 327.781,385.901 359.5,378.5C 360.167,378.833 360.833,379.167 361.5,379.5C 358.165,388.506 354.832,397.506 351.5,406.5C 352.858,413.678 356.858,415.844 363.5,413C 369.697,400.75 374.531,387.916 378,374.5C 387.74,370.865 397.573,367.531 407.5,364.5 Z"/></g>
<g><path style="opacity:1" fill="#70d6fb" d="M 247.5,390.5 C 247.832,425.671 247.498,460.671 246.5,495.5C 230.531,492.682 216.531,485.849 204.5,475C 177.543,447.559 159.709,415.392 151,378.5C 182.692,386.136 214.859,390.136 247.5,390.5 Z"/></g>
<g><path style="opacity:1" fill="#376b7c" d="M 247.5,390.5 C 248.83,425.669 248.83,461.002 247.5,496.5C 246.893,496.376 246.56,496.043 246.5,495.5C 247.498,460.671 247.832,425.671 247.5,390.5 Z"/></g>
<g><path style="opacity:1" fill="#376b7d" d="M 263.5,390.5 C 263.168,425.671 263.502,460.671 264.5,495.5C 264.44,496.043 264.107,496.376 263.5,496.5C 262.17,461.002 262.17,425.669 263.5,390.5 Z"/></g>
</svg>
