<!DOCTYPE svg PUBLIC "-//W3C//DTD SVG 1.1//EN" "http://www.w3.org/Graphics/SVG/1.1/DTD/svg11.dtd">
<!-- Uploaded to: SVG Repo, www.svgrepo.com, Transformed by: SVG Repo Mixer Tools -->
<svg fill="#000000" width="800px" height="800px" viewBox="-3.2 -3.2 38.40 38.40" xmlns="http://www.w3.org/2000/svg">
<g id="SVGRepo_bgCarrier" stroke-width="0">
<rect x="-3.2" y="-3.2" width="38.40" height="38.40" rx="7.68" fill="#ffffff" strokewidth="0"/>
</g>
<g id="SVGRepo_tracerCarrier" stroke-linecap="round" stroke-linejoin="round"/>
<g id="SVGRepo_iconCarrier"> <path d="M16 0l-13.86 8v16l13.86 8 13.86-8v-16zM24 22.12c0 0.943-0.86 1.719-2.036 1.719-0.844 0-1.803-0.339-2.401-1.079l-8-9.52v8.88c0 0.959-0.76 1.719-1.703 1.719h-0.1c-0.963 0-1.719-0.803-1.719-1.719v-12.24c0-0.943 0.839-1.719 2-1.719 0.86 0 1.839 0.339 2.437 1.079l7.959 9.52v-8.88c0-0.963 0.803-1.719 1.724-1.719h0.099c0.959 0 1.719 0.797 1.719 1.719v12.24z"/> </g>
</svg>